<?xml version="1.0" standalone="no"?>
<svg viewBox="-350 -150 1500 1500" style="width: 390px; height: 390px; justify-content: center; align-self: center; transform: scale(1, 1);" xmlns="http://www.w3.org/2000/svg"><rect x="-350" y="-150" width="100%" height="100%" fill="#fbeaeb" rx="30"></rect><g transform="rotate(0 408.5065425634384 629.7391586303711)"><g id="body_Hoodie" data-name="body/Hoodie" transform="translate(0 459)"><path id="_Skin" data-name="âœ‹ Skin" d="M778.244,749.543c19.326-.933,11.553-34.738,10.166-47.153-15.3-45.344-11.7-94.816-17.722-142.344-3.749-44.368-8.566-88.6-12.618-132.932-7.958-89.994-65.1-273.2-130.32-302.661-8.215-36.046-42.146-69.694-85.076-69.694C513.394,20.1,478.151-4.293,432.948.632c-18.68.85-36.8,20.662-54.695,24.488-10.022,1.382-98.962-2.175-116.778,8.406-12.41,6.372-23.613,18.147-19.964,33.138,5.822,18.162-12.271-1.49-50.014,17.895-76.963,46.223-30.973,108.06-28.935,109.976C114.534,261.358,72.555,315.57,53.132,397.247,40.544,457.886,41.961,520.485,31.414,581.435,27.69,602.569,21.977,622.98,15.8,643.5c-6.7,26.859-9.958,93.8-13.651,94.4-6.727,1.671,3.888,15.483,11.016,15.494,197.624,32.781,398.362,1.358,597.048-3.776C666.2,747.675,722.254,747.226,778.244,749.543Z" transform="translate(12.504 -34)" fill="#d08b5b"></path><path id="_Jacket" data-name="ðŸ§¥ Jacket" d="M378.5,64.457c0,21.032,73.03,99.184,98.234,94.028q25.2-5.156,76.16-67.249V64.457L545.558,35.3c41.56,1.465,74.161,34.409,82.191,69.643,64.563,29.169,121.219,209.019,130.067,299.934l.253,2.728c4.052,44.334,8.869,88.564,12.618,132.932,6.018,47.528,2.421,97,17.722,142.344l.091.77c1.6,12.984,8.683,45.469-10.257,46.383-55.99-2.317-112.043-1.868-168.036.079-198.686,5.134-399.424,36.557-597.048,3.776C6.032,733.882-4.583,720.07,2.144,718.4,5.837,717.8,9.1,650.857,15.8,624l1.272-4.245c5.689-19.1,10.88-38.147,14.347-57.823,10.547-60.95,9.13-123.549,21.718-184.188,19.423-81.677,61.4-135.889,109.43-202.712-2.038-1.916-48.028-63.752,28.935-109.976,37.743-19.385,55.836.267,50.014-17.9-3.649-14.991,7.554-26.766,19.964-33.138C279.291,3.44,368.231,7,378.253,5.615A53.6,53.6,0,0,0,392.27,0l-.814,2.71Q378.5,46.129,378.5,64.457Z" transform="translate(12.504 -14.495)" fill="#9fd8e5"></path><path id="_Ink" data-name="ðŸ– Ink" d="M489.923,756.62a2.312,2.312,0,0,1-2.344-2.262c-2.9-42.141-4.793-84.108-6.62-124.693l0-.039c-1.3-28.844-2.125-58.437-2.525-90.472-.544,0-1.1.009-1.633.014h-.079c-.79.007-1.608.015-2.412.018-21.611.094-43.954.192-65.926.192-18.81,0-35.54-.071-51.146-.218l.01.009a.977.977,0,0,1,.162.247c2.792,6.59,3.1,14.986,3.024,22.33a110.352,110.352,0,0,1-3.073,24.292,127.572,127.572,0,0,1-6.955,20.859,156.4,156.4,0,0,1-10.19,19.6,215.18,215.18,0,0,1-26.985,34.9l-.65.689c-.692.732-1.414,1.479-2.113,2.2l-.033.034c-4.11,4.253-8.361,8.65-10.81,14.018-2.341,5.129-3.468,10.961-4.559,16.6-.276,1.426-.56,2.9-.857,4.317l-.17.8-5.678,26.226c-.385,1.778-.708,3.712-1.05,5.759-1.253,7.5-2.673,16-7.86,20.73a10.5,10.5,0,0,1-7.1,2.936c-4.313,0-8.276-2.934-10.1-7.476-1.923-4.79-.6-9.924.684-14.889l0-.007c.218-.845.443-1.718.644-2.56l10.491-44.1c1.768-7.374,3.659-14.52,7.328-20.891,3.8-6.592,9.257-11.292,15.036-16.268l.063-.054a191.116,191.116,0,0,0,15.448-14.892,182.332,182.332,0,0,0,13.638-16.562,159.839,159.839,0,0,0,20.559-37.558,135.328,135.328,0,0,0,5.995-20.622c.652-3.2.992-6.515,1.32-9.716a92.537,92.537,0,0,1,1.463-10.373,1.28,1.28,0,0,1,.922-.9.564.564,0,0,1,.059-.49.51.51,0,0,1,.406-.226l31.918-2.051c27.254-1.758,56.425-3.683,85.089-5.852l5.009-.362c-.356-36.713-.137-76.214.668-120.758.25-13.856.411-27.947.566-41.573v-.057c.258-22.66.526-46.092,1.211-69.132.563-18.876,1.79-37.532,3.033-54.882,1.049-14.631,2.617-29.42,4.135-43.723.421-3.967.856-8.069,1.279-12.157a.7.7,0,0,1,1.406,0l1.395,13.469c1.544,14.958,3.294,32.344,4.517,49.395,1.482,20.683,2.472,41.5,2.941,61.869,1.724,74.713,2,150.6,2.13,215.867,9.478-.657,19.3-1.313,29.2-1.951,5.856-.378,12.154-.772,19.82-1.238l16.847-1.021,6.936-.426c.65-.04,1.326-.1,1.98-.156h.008c1.253-.109,2.548-.221,3.8-.221,2.368,0,5.361.348,7.5,3.059,1.545,1.956,1.817,4.068.747,5.794-2.635,4.251-6.555,4.391-11.093,4.553l-.054,0-.908.034c-4.6.186-9.267.371-13.872.548-8.77.341-19.16.729-29.729,1.026-10.465.294-20.961.532-31.2.706-.105,30.326-1.347,60.377-2.722,91.057l-.615,13.655c-1.857,41.238-3.587,75.855-5.993,110.761A2.313,2.313,0,0,1,489.923,756.62Zm-299.2-3.946a6.222,6.222,0,0,1-5.53-3.115l.7.462a1.127,1.127,0,0,0,.213.12c.013-.032-.709-.582-2.271-1.73l-1.683-2.177a13.62,13.62,0,0,1-2.317-5.83,33.884,33.884,0,0,1,.138-7.83c.084-.9.171-1.819.229-2.7l3.864-59.612c1.11-17.117,2.3-34.433,3.456-51.178,1.982-28.784,4.031-58.547,5.7-87.862,1.094-19.208,2.13-41.938,1.51-64.889-.352-13.043-.814-23.049-1.5-32.442-.864-11.865-2.078-22.413-3.71-32.247a2.022,2.022,0,0,1,.442-1.667,1.936,1.936,0,0,1,1.45-.693,1.805,1.805,0,0,1,1.536.915,139.638,139.638,0,0,1,8.924,16.412,148.043,148.043,0,0,1,6.59,17.1,186.683,186.683,0,0,1,7.392,36.247,296.546,296.546,0,0,1,1.623,33.354c-.029,12.042-.612,24.174-1.118,33.4-1.286,23.482-2.785,46.965-4.337,70.961l-2.349,36.263-5.9,90.909a27.791,27.791,0,0,1-1.807,9.024,12.44,12.44,0,0,1-5.69,6.414,13.383,13.383,0,0,1-2.309,1.583A6.928,6.928,0,0,1,190.724,752.674ZM15.274,751.2a9.532,9.532,0,0,1-5.922-2.065A11.114,11.114,0,0,1,5.7,743.866a106.971,106.971,0,0,1-4.75-23.005,204.335,204.335,0,0,1-.93-23.554C.156,683.232,1.74,668.36,5,650.506c3.8-20.789,9.094-41.623,14.215-61.771l0-.008.009-.033c2.363-9.3,4.806-18.908,7.069-28.388,3.14-13.156,5.81-26.551,7.935-39.812,2.119-13.223,3.771-26.781,4.911-40.3.584-6.92,1.119-13.962,1.636-20.773l0-.057c1.584-20.857,3.222-42.425,6.483-63.47a287.058,287.058,0,0,1,9.275-40.442A277.026,277.026,0,0,1,71.7,316.836c12.087-25.065,27.314-48.08,39.23-65.33,9.029-13.069,18.328-25.521,27.641-37.009,9.934-12.254,20.24-23.854,30.633-34.479a11.889,11.889,0,0,1-5.738-1.844,17.369,17.369,0,0,1-6.275-7.219,29.569,29.569,0,0,1-2.693-9.269,127,127,0,0,1-.942-22.069,105.4,105.4,0,0,1,3.261-21.826A81.276,81.276,0,0,1,172.75,86.531a70.167,70.167,0,0,1,12.766-11.956,64.411,64.411,0,0,1,15.644-8.314,56.982,56.982,0,0,1,18.222-3.055c.544-.014,1.123-.02,1.771-.02.956,0,1.916.014,2.844.028H224c.941.014,1.913.028,2.888.028a33.842,33.842,0,0,0,10.431-1.277c3.747-1.232,6.931-3.886,9.733-8.116A70.9,70.9,0,0,0,252.9,41.966c.233-.56.453-1.09.677-1.623l.156-.37a74.515,74.515,0,0,1,7.576-14.165,44.2,44.2,0,0,1,11.37-11.278C283.26,7.323,296.633,4.361,307.1,2.586l.754-.127A174.615,174.615,0,0,1,336.325,0C356.316,0,374,3.979,388.875,11.827a.22.22,0,0,1,.105.256.224.224,0,0,1-.213.18h-.011l-7.941-.317c-9.588-.376-17.63-.626-25.718-.626-9.124,0-17.2.335-24.683,1.024A172.62,172.62,0,0,0,305.9,16.285l-2.531.61a108.353,108.353,0,0,0-13.331,3.964A42.947,42.947,0,0,0,278.02,27.6a33.7,33.7,0,0,0-7.889,9.886,107.757,107.757,0,0,0-5.31,11.628l-.309.755-.437,1.054a62.661,62.661,0,0,1-5.916,11.251,33.445,33.445,0,0,1-8.883,9.035,32.164,32.164,0,0,1-12.269,4.823,97.534,97.534,0,0,1-13.18,1.273h-.01c-2.008.1-4.085.209-6.107.371a44.5,44.5,0,0,0-13.552,3.3,49.937,49.937,0,0,0-11.843,7.04,57.439,57.439,0,0,0-9.727,9.917,61.72,61.72,0,0,0-7.2,11.934c-4.256,9.278-6.639,20.33-7.082,32.848a103.729,103.729,0,0,0,.527,17.251,27.156,27.156,0,0,0,1.445,4.787c.5,1.288,1.453,3.447,2.128,3.447l.041,0a5.944,5.944,0,0,1,.814-.056,5.1,5.1,0,0,1,4.82,3.049c6.4-6.185,12.9-12.094,19.323-17.561a371.648,371.648,0,0,1,53.146-37.842c13.111-7.667,28.722-16.39,45.088-22.953l-.177,0a7.449,7.449,0,0,0-3.469.836.518.518,0,0,1-.731-.261.493.493,0,0,1,.107-.547A16.617,16.617,0,0,1,297,88.9a15.877,15.877,0,0,1,6.136-1.181,22.249,22.249,0,0,1,5.009.612c1.367-.435,2.616-.817,3.817-1.166a.607.607,0,0,1,.169-.025.521.521,0,0,1,.5.394.577.577,0,0,1-.233.66l-1.462.933c6.453,2.162,12.756,6.376,17.821,9.762l.094.063c13.155,8.792,25.075,19.535,36.6,29.923l.053.047c1.159,1.045,2.358,2.126,3.539,3.186l2.353,2.107c10.895,9.729,22.8,19.879,36,28.2a127.213,127.213,0,0,0,21.345,11.155c1.452.572,3.1,1.091,4.836,1.641,5.935,1.875,12.661,4,14.979,9.23A6.136,6.136,0,0,1,450,189.261a7.017,7.017,0,0,1-3.011,4.723c-1.851,2.037-4.546,3.07-8.011,3.07-4.5,0-9.412-1.65-14.047-3.433a149.034,149.034,0,0,1-21.866-10.5c-12.1-7.107-24.438-16.392-37.706-28.385-8.073-7.3-15.974-15.027-23.614-22.5-3.867-3.783-7.863-7.692-11.852-11.517-2.482-2.379-4.977-4.826-7.39-7.192-2.569-2.519-5.225-5.123-7.876-7.658l-2.579-2.442c-.392-.367-.807-.765-1.247-1.185a51.6,51.6,0,0,0-9.1-7.421c-2.885,1.721-5.823,3.436-8.664,5.094-4.595,2.682-9.342,5.453-13.941,8.292-9.319,5.753-19.274,12.432-30.435,20.419a465.837,465.837,0,0,0-54.1,45.461c-7.551,7.373-15.06,15.237-22.316,23.373-7,7.849-13.971,16.181-20.719,24.766a626.729,626.729,0,0,0-37.115,52.868l-1.745,2.777c-7.655,12.23-13.6,22.367-18.693,31.9A287.072,287.072,0,0,0,78.51,343.316a248.175,248.175,0,0,0-11.089,38.9,376.979,376.979,0,0,0-5.773,40.067c-1.161,12.282-1.981,24.795-2.775,36.9-.934,14.244-1.9,28.972-3.426,43.411-1.353,12.8-3.38,26.112-6.2,40.7-2.3,11.922-5.127,24.7-8.891,40.211l-1.547,6.339q-.464,1.891-.928,3.782l-.057.232,0,.008c-5.463,22.241-11.111,45.24-13.96,68.377A284.264,284.264,0,0,0,21.5,701.8c.18,10.858,1.636,21.722,3.044,32.229l.008.059c.312,2.326.634,4.732.938,7.1a7.991,7.991,0,0,1-2.466,6.586,11.483,11.483,0,0,1-6.272,3.313A10.029,10.029,0,0,1,15.274,751.2Zm786.81-13.4a11.4,11.4,0,0,1-7.438-2.652,10.743,10.743,0,0,1-3.64-7.939,544.545,544.545,0,0,0-5.659-56.154c-2.744-18.573-6.19-37.36-9.523-55.528l0-.016c-2.674-14.578-5.439-29.652-7.834-44.567-2.9-18.067-5.2-37.938-7.035-60.747-1.635-20.335-2.756-41.077-3.839-61.137v-.012c-1.385-25.637-2.817-52.148-5.338-78.074-1.356-13.952-2.911-26.628-4.753-38.754-2.067-13.608-4.44-26.175-7.253-38.42a405.144,405.144,0,0,0-15.774-52.45,352.635,352.635,0,0,0-23.22-49.58c-4.684-8.227-9.545-15.98-14.449-23.041A233.159,233.159,0,0,0,669.592,147.3c-8.481-9.588-19.908-21.97-33.1-32.7a7.152,7.152,0,0,1-5.125,2,9.377,9.377,0,0,1-5.036-1.507,8.411,8.411,0,0,1-3.4-4.231,28.3,28.3,0,0,1-1.2-7.172,40.085,40.085,0,0,0-.663-5.267,61.757,61.757,0,0,0-3.47-11.026A72.449,72.449,0,0,0,605.043,67.86a78.919,78.919,0,0,0-8.885-8.493,84.036,84.036,0,0,0-10.068-7.041c-4.458-2.66-9.269-4.185-13.922-5.66-2.819-.894-5.735-1.818-8.569-2.99a.307.307,0,0,1-.2-.288.276.276,0,0,1,.2-.254,24.569,24.569,0,0,1,8.043-1.232c6.269,0,12.989,1.833,18.143,3.43A61.1,61.1,0,0,1,602.478,51a78.362,78.362,0,0,1,11.315,8.109,72.837,72.837,0,0,1,10.055,10.522,71.943,71.943,0,0,1,7.75,12.32l.412.84a82.282,82.282,0,0,1,5.442,13.738c1.548,5.55,1.884,10.373,1,14.336-.057.254-.123.5-.2.73a186.541,186.541,0,0,1,23.133,13.467,159.012,159.012,0,0,1,20.77,16.958,228.6,228.6,0,0,1,20.919,23.4,259.671,259.671,0,0,1,17.715,25.917,290.361,290.361,0,0,1,14.493,27.453c4.194,9.076,8.085,18.692,11.564,28.581,3.3,9.368,6.331,19.29,9.021,29.49,2.523,9.568,4.832,19.722,6.862,30.18,3.6,18.524,6.471,38.658,8.791,61.552,2.151,21.235,3.568,42.195,4.779,61.681l1.263,20.677c1.532,24.864,2.979,45.747,5.062,66.843,2.431,24.619,5.463,46.333,9.271,66.381l.61,3.18c1.873,9.662,3.952,19.508,5.962,29.031l0,.016c3.8,18.012,7.733,36.637,10.514,55.091,1.5,9.94,2.55,19.023,3.215,27.769a268.448,268.448,0,0,1,.744,27.944,10.593,10.593,0,0,1-3.5,7.948A11.156,11.156,0,0,1,802.084,737.794Zm-123.566-8.3a8.133,8.133,0,0,1-6.106-2.665c-5.644-6.087-6.045-15.942-6.4-24.636v-.011c-.1-2.458-.194-4.779-.4-6.949-.771-8.238-1.659-16.577-2.638-24.786l-.5-4.125c-.188-1.52-.373-3.071-.552-4.571a219.291,219.291,0,0,0-3.7-23.611A39.732,39.732,0,0,0,646.809,618c-1.718-1.708-3.483-3.41-5.19-5.055l-.02-.019c-4.2-4.048-8.539-8.232-12.45-12.768A177.138,177.138,0,0,1,613.3,578.555a145.638,145.638,0,0,1-10.291-20.575l-.494-1.174c-.514-1.226-1.081-2.5-1.681-3.855-2.77-6.24-5.907-13.308-5.723-19.524a.428.428,0,0,1,.721-.3,29.183,29.183,0,0,1,4.968,6.824c.544.921,1.107,1.874,1.688,2.768,2.44,3.751,5,7.415,7.608,10.89,5.374,7.161,11.457,14.006,17.23,20.336a246.38,246.38,0,0,0,17.627,17.433c2.32,2.078,4.776,4.109,7.151,6.074a128.566,128.566,0,0,1,13.017,11.81c11.8,12.875,14.343,30.192,16.806,46.94l.006.04c.167,1.136.34,2.31.512,3.458l.292,1.921c1.571,10.194,3.048,20.853,4.391,31.679v.011c.589,4.753,1.258,10.141,1.792,15.444l.159,1.634a37.57,37.57,0,0,1,.106,7.533,15.676,15.676,0,0,1-2.418,7.055,10.109,10.109,0,0,1-3.619,3.3A9.766,9.766,0,0,1,678.517,729.494Zm61.184-3.555a10.812,10.812,0,0,1-8.752-5.007c-3.3-4.727-3.553-12.216-3.779-18.824-.08-2.357-.156-4.584-.361-6.576-.941-9.136-1.771-16.542-2.61-23.307-1.9-15.348-4.453-30.816-6.922-45.244-2.9-16.96-6.578-34.087-10.131-50.65-3-14-6.106-28.466-8.732-42.77-6.824-37.163-10.076-67.933-10.232-96.836-.119-22.344,1.477-45.026,3.02-66.962v-.006c.726-10.317,1.477-20.986,2.039-31.5,1.64-30.635,3.6-63.3,5.984-99.875a.75.75,0,0,1,.77-.724.707.707,0,0,1,.73.724c.167,7.691.33,15.445.522,24.721.315,15.171.516,30.605.711,45.531v.015c.329,25.2.669,51.26,1.563,76.873,1,28.723,2.61,53.817,4.916,76.716,1.482,14.712,3.6,29.922,6.479,46.5,2.408,13.867,5.4,28.933,9.144,46.059,1.667,7.621,3.4,15.333,5.067,22.791l.016.072c1.769,7.895,3.6,16.058,5.352,24.1.615,2.819,1.249,5.692,1.862,8.47l.071.323c2.689,12.18,5.47,24.774,7.6,37.23,2.337,13.646,4.872,29.753,5.96,45.75l.129,2c.085,1.407.23,2.932.384,4.546a82.836,82.836,0,0,1,.547,10.776c-.158,4.1-.953,7.248-2.43,9.626C746.468,723.949,743.216,725.938,739.7,725.938ZM486.637,172.392a27.284,27.284,0,0,1-11.867-2.885,64.852,64.852,0,0,1-10.6-6.7l-.773-.582c-7.848-5.941-14.886-11.612-21.518-17.338a338.668,338.668,0,0,1-39.751-39.919,276.8,276.8,0,0,1-16.889-22.287,146.822,146.822,0,0,1-13.53-24.432,1.158,1.158,0,0,1,.095-1.1.99.99,0,0,1,.814-.466,1.033,1.033,0,0,1,.711.313c3.755,3.573,7.284,7.287,10.242,10.45.039-2.172-.107-4.389-.247-6.534a56.109,56.109,0,0,1-.09-9.328c.2-1.924.321-3.95.44-5.909.285-4.664.579-9.486,1.87-13.83a11.832,11.832,0,0,1,11.225-8.475,11.287,11.287,0,0,1,2.989.4,12.412,12.412,0,0,1,7.408,6.287,9.772,9.772,0,0,1,.661,7.928c-1.751,4.652-4.5,8.875-7.168,12.959l0,.006c-.985,1.511-2,3.073-2.958,4.636a62.452,62.452,0,0,1-5.835,7.661,65.748,65.748,0,0,0-5.522,7.165l3.666,3.952c1.624,1.745,3.552,3.806,5.534,5.858l6.395,6.624c4.746,4.905,9.866,10.146,15.144,15.237,9.052,8.731,16.169,15.337,23.076,21.42,8.562,7.54,16.555,14.032,24.438,19.846,3.51,2.588,7.6,5.579,11.757,8.332l1.492.988c2.434,1.594,5.29,3.3,8.371,3.3.252,0,.506-.012.755-.034,6.872-.631,13.219-6.987,18.319-12.1.9-.9,1.741-1.743,2.56-2.532l.29-.277a310.9,310.9,0,0,0,37.546-42.689c2.376-3.286,4.726-6.685,7.182-10.39-4.343-5.073-4.337-14.085-4.332-21.326v-.014c0-1.718,0-3.341-.054-4.794-.2-5.023-.223-10.128-.248-15.065l-.005-.993-.014-1.08-.008-.388c-.067-3.347-.13-6.508,2.035-9.254a.387.387,0,0,1,.314-.133.566.566,0,0,1,.255.06c2.835,1.485,3.855,3.869,5.036,6.63l.044.1q.131.305.265.616l.137.315c1.243,2.827,2.464,5.721,3.646,8.52l0,.011.041.1q.495,1.172.99,2.344c1.407,3.321,2.732,6.734,4.012,10.035l.607,1.564c.629,1.616,1.292,3.394,2.027,5.436.383,1.116.787,2.253,1.236,3.475l.1.089A10.377,10.377,0,0,1,570.4,75.7a7.256,7.256,0,0,1,3.726,4.729c1.329,4.774-1.228,8.707-3.7,12.51l-.366.563a314.442,314.442,0,0,1-35.638,45.528c-6.512,6.865-13.483,13.545-20.719,19.855l-1.261,1.092a75.241,75.241,0,0,1-10.264,7.669,32.476,32.476,0,0,1-11.894,4.471A24.615,24.615,0,0,1,486.637,172.392Z" transform="translate(2 -21.143)"></path></g><g transform="translate(225 0)"><g><g><path id="_Skin" data-name="âœ‹ Skin" d="M340.529,155c-2.153-18.915.633-58.451.82-60.853,1.18-15.185-5.935-75.148-19.385-69.623C299.4,6.666,269.351,2.722,241.251.838,182.883-3.076,120.791,5.909,75.72,45.189c-22.289,20.4-43.988,50.068-42.244,80.96C13.226,155.431-15.324,195.6,9.908,229.831c8.577,10.937,22.208,15.01,32.982,23.293,21.672,17.48,35.268,42.566,57.145,59.942,57.96,52.083,156.377,62.963,213.323,3.723,44.035-42.9,36.915-107.09,29.169-161.786C337.321,118.23,344.728,191.9,340.529,155Z" transform="translate(65.001 149)" fill="#d08b5b"></path><path id="_Ink" data-name="ðŸ– Ink" d="M250.311,443.271a134.042,134.042,0,0,1-19.031-1.4,105.442,105.442,0,0,1-21.491-5.2,40.754,40.754,0,0,1-10.072-5.32,45.226,45.226,0,0,1-8.2-7.871,6.294,6.294,0,0,1-.675-6.317,3.866,3.866,0,0,1,3.632-2.362,5.178,5.178,0,0,1,.623.039,118.17,118.17,0,0,1,21.024,4.124l1,.317a104.128,104.128,0,0,0,21.541,4.62c3.694.358,7.44.539,11.135.539a110.436,110.436,0,0,0,33.375-5.089,96.9,96.9,0,0,0,16.843-7.179,103.553,103.553,0,0,0,15.255-10.132,108.268,108.268,0,0,0,24.252-27.3c7.019-11.267,11.672-24.011,14.225-38.96,2.453-14.362,2.683-29.15,2.584-41.72-.228-29.893-1.2-61.166-2.89-92.951l-.28-5.159c-.715-13.089-1.64-30.351-2.449-47.81-.269-5.848-.654-10.624-1.211-15.03a39.576,39.576,0,0,1-14.309-13.79,141.029,141.029,0,0,1-20.441,6.43,122.385,122.385,0,0,1-29.191,3.585,115.192,115.192,0,0,1-17.182-1.283c-4.14,1.71-8.423,3.236-12.73,4.536-1.2.53-2.372,1.042-3.5,1.523a212.419,212.419,0,0,1-31.93,10.98l-2.7.673a110.358,110.358,0,0,1-18.2,3.267,26.538,26.538,0,0,1-3.291,1.01,53.5,53.5,0,0,1-12.614,1.5c-1.507,0-3.032-.064-4.535-.189a8.47,8.47,0,0,1-6.809-4.393,6.954,6.954,0,0,1-.8-3.361,7.468,7.468,0,0,1,1.063-3.656c2.223-3.814,4.515-7.7,6.81-11.55a214.565,214.565,0,0,1-24.5,8.419c-7.393,2.082-15.461,4.046-25.391,6.18-2.254.481-4.55.941-6.77,1.387l-.008,0-.008,0c-2.255.453-4.587.921-6.873,1.409-.724.154-1.531.291-2.386.436-3.024.512-6.445,1.092-8.505,2.754-2.272,1.824-3.263,5.465-4.138,8.678-.248.912-.483,1.774-.732,2.532-1.555,4.676-2.889,9.014-4.08,13.26A275.4,275.4,0,0,0,89.65,200.5a259.542,259.542,0,0,0-3.231,27.6c-.243,3.81-.343,7.693-.44,11.448-.138,5.351-.281,10.884-.839,16.292a6.422,6.422,0,0,1-1.929,4.023,5.5,5.5,0,0,1-3.775,1.528,5.9,5.9,0,0,1-3.916-1.571c-.437-.385-.9-.8-1.364-1.213l-.676-.617a68.99,68.99,0,0,1-9.169-9.76c-.47-.646-.931-1.335-1.371-2.05a.328.328,0,0,1-.2-.069l-.734-.553c-7.713-5.742-14.351-8.653-19.73-8.653a11.913,11.913,0,0,0-9.756,4.785c-2.571,3.258-3.86,7.467-4.867,11.156l-1.874,7a121.649,121.649,0,0,0-3.02,13.849,53.032,53.032,0,0,0-.04,16.26,29.684,29.684,0,0,0,6.5,14.7,18.387,18.387,0,0,0,11.279,6.39,14.147,14.147,0,0,0,1.947.126,34.415,34.415,0,0,0,4.475-.394l.027,0q.456-.06.913-.119a15,15,0,0,1,1.871-.106c.661,0,1.33.031,1.976.061h.005c.651.03,1.324.061,1.991.061.562,0,1.064-.022,1.537-.067.153-.015.305-.023.453-.023a3.964,3.964,0,0,1,3.448,1.984,5.721,5.721,0,0,1,.308,5.369,18.167,18.167,0,0,1-2.81,4.15,32.426,32.426,0,0,1,2.471,2.38,12.33,12.33,0,0,1,6.009,4.49,10.188,10.188,0,0,1,2.04,5.56c.127.446.245.923.37,1.5l2.146,3.481c.526.852.988,1.59,1.414,2.258A108.707,108.707,0,0,0,90.14,364.5c2.683,2.443,5.5,4.83,8.219,7.139a183.861,183.861,0,0,1,13.711,12.452l.8.841a52.5,52.5,0,0,1,8.591,11.12c2.445,4.623,3.088,9.006,1.966,13.4a4.689,4.689,0,0,1-4.367,3.27,3.4,3.4,0,0,1-2.043-.66c-4.383-3.253-7.526-7.73-10.565-12.06a76.126,76.126,0,0,0-6.675-8.6c-3.244-3.446-6.722-6.77-10.086-9.984l0,0c-3.272-3.126-6.655-6.359-9.821-9.7A78.044,78.044,0,0,1,65.4,350.085a11.648,11.648,0,0,1-8.016,3.277,10.979,10.979,0,0,1-6.052-1.861,12.382,12.382,0,0,1-4.223-4.766,37.879,37.879,0,0,1-4.271,1.62,8.617,8.617,0,0,1-2.517.393,7.433,7.433,0,0,1-6.3-3.59,9.713,9.713,0,0,1-1.478-4.405,9.444,9.444,0,0,1,.8-4.738,30.273,30.273,0,0,1,5.809-8.68,36.826,36.826,0,0,1-19.821-9.63,40.67,40.67,0,0,1-11.188-21.54,60.016,60.016,0,0,1-1.1-12.283A77.3,77.3,0,0,1,8.19,271.595a121.654,121.654,0,0,1,7.25-25.11c.627-1.532,1.231-2.9,1.849-4.171a1.3,1.3,0,0,1-.99-.48c-.755-1.031-1.576-2.011-2.37-2.958a28.945,28.945,0,0,1-4.17-5.911c-.332-.682-.678-1.378-1.013-2.051a76.048,76.048,0,0,1-3.366-7.419c-2.615-7.059-3.752-14.963-4.45-21.06a158.58,158.58,0,0,1,1.18-42.75,170.791,170.791,0,0,1,9.426-35.324A173.628,173.628,0,0,1,28.118,91.949a11.606,11.606,0,0,1-2.06-1.38l-.319-.278-.518-.468a8.553,8.553,0,0,1-2.716-6.22,9.838,9.838,0,0,1,2.716-7.1l1.093-1.1a28.988,28.988,0,0,1,4.812-3.961c.323-.217.662-.426,1.008-.623a9.567,9.567,0,0,1-.76-7.479,9.927,9.927,0,0,1,5-6.127,17.589,17.589,0,0,1,8.3-1.832,29.707,29.707,0,0,1,12.379,2.823A160.043,160.043,0,0,1,89.509,35.715,310.548,310.548,0,0,1,133.8,17.02a382.367,382.367,0,0,1,46.481-12.4A211.134,211.134,0,0,1,222.145,0c1.919,0,3.842.035,5.715.1l1.229.048a140.719,140.719,0,0,1,19.4,1.822c7.586,1.375,13.556,3.564,18.249,6.693a2.286,2.286,0,0,1,1.6-.688,1.954,1.954,0,0,1,.849.193c11.52,5.5,24.119,9.59,36.3,13.548l2.9.942A177.356,177.356,0,0,0,348.6,30.835a8.341,8.341,0,0,1,3.992,1.438,8.081,8.081,0,0,1,2.732,3.1,6.289,6.289,0,0,1-.441,6.414c-.8,1.227-1.569,2.449-2.279,3.586l1.134-.119h.006c.861-.091,1.752-.185,2.627-.273.18-.018.364-.027.547-.027a7.369,7.369,0,0,1,5.222,2.5A7.73,7.73,0,0,1,364.386,53a74.571,74.571,0,0,1-.83,7.5h.03l.258,0a11.147,11.147,0,0,1,4.363.845c3.408,1.44,5.489,4.14,6.361,8.256.731,3.449.494,7.342.19,11.035-.869,10.526-4.908,20.378-11.082,27.031a42.951,42.951,0,0,1,6.4,8.552,46.562,46.562,0,0,1,4.236,10.179,48.059,48.059,0,0,1,1.96,16.681l-.134,1.673c-.546,6.379-1.641,12.871-5.917,17.147a9.3,9.3,0,0,1-6.693,2.856c-.31,0-.626-.016-.937-.046,1.6,14.077,2.642,28.492,3.57,42.05l.451,6.7c1.244,18.817,2.078,34.286,2.625,48.682.67,17.642.9,33.579.7,48.722a208.31,208.31,0,0,1-1.452,22.5,155.263,155.263,0,0,1-4.208,21.8,124.627,124.627,0,0,1-7.62,20.734,111.491,111.491,0,0,1-11.689,19.3,125.614,125.614,0,0,1-14.016,15.635,123.478,123.478,0,0,1-16.39,13.019,119.108,119.108,0,0,1-18.372,9.994A114.071,114.071,0,0,1,276.23,440.4,116.407,116.407,0,0,1,250.311,443.271ZM63,290.8l-.165,0a10.766,10.766,0,0,1-6.9-2.776,34.718,34.718,0,0,1-5-5.842c-.505-.685-1.027-1.392-1.553-2.072a6.867,6.867,0,0,1-1.67,2.04l-.46.36a8.407,8.407,0,0,1-5.027,2.036c-.092,0-.184,0-.273-.006a9.849,9.849,0,0,1-4.12-1.111,7.465,7.465,0,0,1-3.4-3.97,8.549,8.549,0,0,1,3.056-10.16l-.6-.413a12.088,12.088,0,0,1-3.389-3.245l-.207-.331h.08a3.241,3.241,0,0,1,1.861-4.78,9.719,9.719,0,0,1,3.016-.448c4.238,0,8.953,2.193,12.743,3.954.38.177.772.359,1.152.533,6.036,2.77,11.242,6.957,15.97,11.07,2.147,1.874,3,5.1,2.28,8.63l-.036.178c-.048.242-.1.491-.155.742a6.838,6.838,0,0,1-2.672,3.981A7.7,7.7,0,0,1,63,290.8Z" transform="translate(48 65.001)"></path></g></g><g transform="translate(159 186)"><g><path d="M140.63 0.473197L139.193 0.179116C137.503 -0.15929 135.804 -0.0161244 134.311 0.591153C132.847 1.18684 131.572 2.2242 130.68 3.72083C129.495 5.71373 129.337 7.38618 129.887 9.59525C130.311 11.3022 131.242 12.5864 132.46 13.5139C133.744 14.4911 135.37 15.0612 137.06 15.2595C144.854 16.175 152.53 17.8896 159.992 20.3235C163.488 21.4643 166.788 23.0096 170.058 24.6132L172.877 26.002C175.477 27.2735 178.163 28.499 181.557 29.3885C181.824 29.4584 182.087 29.5243 182.349 29.5865C183.29 29.2909 183.45 28.9329 183.649 28.6733L183.73 28.5721C183.972 28.2679 184.271 27.8025 183.988 25.6306C176.583 10.2711 156.267 3.74181 140.63 0.473197ZM43.5878 4.83023L45.4652 4.50163C51.273 3.49719 58.4944 2.53203 62.6028 7.20123C64.7819 9.67723 65.5318 14.2792 62.6028 16.6492C58.7671 19.7539 54.6298 19.6513 50.2182 19.5419C48.7043 19.5044 47.1582 19.466 45.5808 19.5562C40.4928 19.8482 35.6028 20.6902 30.7018 22.0912C19.9498 25.1642 11.1888 30.7742 2.00585 36.9342C0.800849 37.7422 -0.429151 36.2012 0.145849 35.0742C5.44685 24.6912 15.7198 16.1622 26.0098 10.9632C31.5019 8.18823 37.5118 5.88623 43.5878 4.83023ZM29.9632 50.1461C30.7976 39.7899 46.5702 37.4381 48.1392 47.6861C49.5442 56.8661 47.8902 65.2991 43.7552 73.5641C39.8042 81.4601 29.8737 77.7763 29.1227 70.5863C28.3809 63.4843 28.9069 59.2482 29.4428 54.933C29.6341 53.3921 29.8267 51.8412 29.9632 50.1461ZM159.205 41.8262C155.401 40.7152 152.226 42.6812 150.027 45.5612C149.773 45.8932 149.566 46.2222 149.38 46.5482C142.515 52.8562 145.101 65.6452 150.501 72.0492C153.814 75.9762 161.145 74.8452 163.413 70.3852C167.587 62.1722 171.09 45.2992 159.205 41.8262ZM128.748 119.039C136.872 107.66 125.366 96.9569 117.814 92.3669C115.836 90.9469 117.406 86.2431 121.634 86.9701C160.031 93.5671 140.136 159.708 91.112 123.413C85.2754 118.704 92.3434 108.334 98.6342 112.366C98.9532 112.611 99.2876 112.869 99.6364 113.139C106.704 118.603 119.636 128.601 128.748 119.039ZM93.5865 188.926C86.8642 186.184 80.8663 181.61 76.4812 175.766C74.9566 173.735 74.5614 171.589 74.8812 169.627C75.2408 167.421 76.546 165.422 78.326 164.08C80.1115 162.735 82.345 162.072 84.5043 162.41C86.3806 162.704 88.2484 163.731 89.7265 165.862L90.0354 166.288C92.6424 169.815 96.0396 172.708 99.9104 174.574C103.641 176.372 107.814 177.211 112.132 176.723C120.356 175.794 126.024 171.346 132.049 165.306C132.796 164.544 133.543 163.757 134.294 162.958C134.768 162.234 135.426 161.768 136.157 161.524C136.968 161.253 137.886 161.268 138.726 161.562C139.537 161.845 140.262 162.381 140.747 163.094C141.209 163.772 141.471 164.61 141.386 165.574C140.835 171.833 137.562 177.419 132.914 181.805C127.752 186.677 120.909 190.047 114.466 191.229C107.368 192.531 100.136 191.598 93.5865 188.926Z" transform="translate(53.00005 52.00027)" fill-rule="evenodd" stroke="none"></path></g></g><g transform="translate(123 338)"></g><g transform="translate(47 241)"><g><path d="M375.513 33.9959C378.273 31.6829 383.089 31.1349 386.423 31.1279C394.028 32.5829 390.88 44.1729 376.385 36.9629C398.166 128.052 258.709 131.937 282.237 45.3469C268.157 41.9599 253.29 41.6839 240.365 48.1139C251.522 87.8139 214.401 125.982 171.734 116.181C144.179 109.783 125.789 88.4229 134.308 57.0269C128.899 58.7229 118.76 57.3109 115.622 53.0899C104.775 52.1634 93.9913 50.8415 83.2204 49.5212C59.091 46.5633 35.0273 43.6135 10.4674 45.1359C7.12749 45.5983 7.31436 47.952 7.50111 50.304C7.68714 52.6469 7.87304 54.9883 4.57241 55.4569C-3.01759 54.7649 -0.0355915 41.9389 5.39841 39.8539C13.0234 34.3889 78.5984 39.8119 116.105 49.6479C121.083 46.3825 128.583 47.3802 134.493 48.1664C135.445 48.2929 136.355 48.414 137.206 48.5109C144.594 30.0029 168.272 6.93191 192.028 10.8229C213.793 12.0919 232.079 20.6889 239.509 45.2399C250.854 34.9489 271.426 31.6259 284.509 39.4079C291.765 23.0939 304.532 10.8229 321.737 5.28991C343.585 -10.2001 368.707 11.0429 375.513 33.9959ZM358.311 87.4579C346.17 100.003 325.902 103.603 309.749 96.8749C268.273 79.5459 288.574 25.4959 320.561 10.9809C324.557 9.98491 329.894 7.62191 334.761 7.08591C334.928 7.0043 335.168 7.04274 335.465 7.09029C335.954 7.1686 336.598 7.27161 337.32 6.90391C372.591 10.8419 380.623 65.5939 358.311 87.4579ZM164.916 105.906C185.6 114.302 210.916 108.73 224.533 90.6689C249.948 57.3679 225.561 0.903908 166.504 23.0949C138.547 41.8849 124.054 89.8139 164.916 105.906ZM135.953 50.6509C135.915 50.6329 135.877 50.6239 135.838 50.6059C136.054 50.5109 136.27 50.4159 136.485 50.3189C136.415 50.5019 136.339 50.6829 136.271 50.8659C136.165 50.7929 136.072 50.7079 135.953 50.6509Z" transform="translate(13.99969 7.999794)" fill-rule="evenodd" stroke="none"></path></g></g></g></g></svg>